<svg width="12" height="12" viewBox="0 0 12 12" fill="none" xmlns="http://www.w3.org/2000/svg">
<path fill-rule="evenodd" clip-rule="evenodd" d="M0 0H12V12H0V0Z" fill="#EC7000"/>
<path fill-rule="evenodd" clip-rule="evenodd" d="M2.53216 0.529372L9.48434 0.533481C10.5756 0.533481 11.4748 1.43263 11.4706 2.528V9.48013C11.4706 10.5756 10.5715 11.4706 9.47619 11.4706L2.51989 11.4665C1.42452 11.4625 0.52948 10.5675 0.52948 9.47203L0.537635 2.51978C0.537635 1.42447 1.43274 0.525263 2.53216 0.529372Z" fill="#33348E"/>
<path fill-rule="evenodd" clip-rule="evenodd" d="M9.92992 5.51973H9.13704L8.81007 6.14097H9.36589L9.92992 5.51973ZM10.4572 6.52931H9.6847V8.1968C9.6847 8.70772 9.3413 8.85483 9.08804 8.85483C8.8468 8.85483 8.5811 8.76487 8.58527 8.31931V6.52925H7.8128L7.80869 8.42969C7.80869 9.16529 8.22979 9.49225 8.81013 9.49225C9.21467 9.49636 9.52949 9.32055 9.70518 9.01003H9.71333V9.41468H10.4572V6.52931H10.4572ZM7.20781 7.29349C7.20781 6.57831 6.45589 6.45162 6.03896 6.45162C5.43814 6.45162 4.81278 6.57831 4.71878 7.46107H5.46671C5.49124 7.29355 5.56072 7.06053 5.94489 7.06053C6.14517 7.06053 6.45589 7.07697 6.45589 7.39577C6.45589 7.55919 6.30461 7.60831 6.18196 7.62462L5.48719 7.72678C4.99264 7.79631 4.62483 8.08642 4.62483 8.65051C4.62483 9.24715 5.0826 9.49237 5.51988 9.49237C6.05123 9.49237 6.3005 9.25126 6.4722 9.07558C6.48851 9.23501 6.50077 9.27585 6.54578 9.4148L7.21198 9.41069C7.21198 9.09189 7.20787 8.85893 7.20787 8.85489V7.29349H7.20781ZM3.91363 5.51973H3.14117V6.52514H2.74061V7.06875H3.13706V8.82208C3.13706 9.19393 3.25559 9.44743 3.92589 9.44743H4.02812C4.1507 9.44743 4.27328 9.43915 4.39187 9.43516V8.85881C4.33871 8.86292 4.28156 8.87107 4.23244 8.87107C3.91774 8.87107 3.90952 8.80565 3.90952 8.63395L3.91363 7.06869H4.39592V6.52508H3.91363V5.51973ZM2.38507 5.51562H1.55129L1.54718 9.41063H2.38097L2.38507 5.51562Z" fill="#FFF22D"/>
<path fill-rule="evenodd" clip-rule="evenodd" d="M6.45594 8.38065V8.00882C6.37824 8.07007 6.24738 8.11907 5.92862 8.16407C5.63844 8.21307 5.40137 8.28665 5.40137 8.60139C5.40137 8.86291 5.61391 8.94875 5.76103 8.94875C6.10444 8.94881 6.45594 8.73218 6.45594 8.38065Z" fill="#33348E"/>
</svg>
