<svg width="24" height="24" viewBox="0 0 24 24" fill="none" xmlns="http://www.w3.org/2000/svg">
<rect y="0.000732422" width="24" height="24" fill="white"/>
<path d="M23.5243 21.4165V21.4645H23.569C23.5774 21.4646 23.5857 21.4625 23.593 21.4584C23.5959 21.4563 23.5983 21.4535 23.5998 21.4503C23.6014 21.4471 23.6022 21.4436 23.602 21.44C23.6022 21.4365 23.6014 21.433 23.5998 21.4299C23.5983 21.4268 23.5959 21.4241 23.593 21.4221C23.5858 21.4178 23.5774 21.4157 23.569 21.416H23.5243V21.4165ZM23.5695 21.3825C23.5887 21.3814 23.6077 21.3869 23.6232 21.3981C23.6295 21.4033 23.6344 21.4098 23.6377 21.4171C23.641 21.4245 23.6425 21.4326 23.6421 21.4406C23.6424 21.4476 23.6412 21.4545 23.6386 21.4609C23.6359 21.4673 23.632 21.4731 23.627 21.4779C23.615 21.4884 23.5999 21.4946 23.584 21.4958L23.644 21.5642H23.5978L23.5426 21.4963H23.5247V21.5642H23.4861V21.3827H23.5701L23.5695 21.3825ZM23.5575 21.6268C23.5778 21.627 23.5978 21.6229 23.6164 21.6148C23.6343 21.6071 23.6506 21.5961 23.6644 21.5823C23.6782 21.5686 23.6893 21.5523 23.6969 21.5343C23.7127 21.4963 23.7127 21.4536 23.6969 21.4155C23.6891 21.3977 23.6781 21.3814 23.6644 21.3675C23.6506 21.3538 23.6343 21.3427 23.6164 21.335C23.5977 21.3274 23.5777 21.3235 23.5575 21.3237C23.5369 21.3236 23.5166 21.3274 23.4975 21.335C23.4792 21.3426 23.4625 21.3536 23.4484 21.3675C23.4272 21.3893 23.4128 21.4168 23.4071 21.4467C23.4015 21.4766 23.4047 21.5075 23.4164 21.5355C23.4237 21.5535 23.4346 21.5699 23.4484 21.5835C23.4625 21.5974 23.4792 21.6085 23.4975 21.616C23.5165 21.6241 23.5369 21.6282 23.5575 21.628V21.6268ZM23.5575 21.2801C23.6102 21.28 23.6609 21.3007 23.6985 21.3377C23.7166 21.3554 23.731 21.3766 23.7409 21.3999C23.7512 21.4239 23.7565 21.4497 23.7565 21.4758C23.7565 21.5019 23.7512 21.5277 23.7409 21.5517C23.7308 21.575 23.7164 21.5961 23.6985 21.614C23.6801 21.6316 23.6586 21.6459 23.6352 21.656C23.6107 21.6664 23.5842 21.6717 23.5575 21.6716C23.5305 21.6718 23.5037 21.6665 23.4788 21.656C23.4551 21.6461 23.4335 21.6319 23.4151 21.614C23.3971 21.5954 23.3829 21.5736 23.3732 21.5497C23.3629 21.5257 23.3577 21.4999 23.3577 21.4738C23.3577 21.4477 23.3629 21.4219 23.3732 21.3979C23.3831 21.3745 23.3975 21.3534 23.4157 21.3356C23.4338 21.3175 23.4555 21.3032 23.4794 21.2936C23.5043 21.2831 23.5311 21.2778 23.5581 21.278L23.5575 21.2801ZM5.18538 20.579C5.18538 20.2328 5.41216 19.9485 5.78279 19.9485C6.13698 19.9485 6.37599 20.2206 6.37599 20.579C6.37599 20.9374 6.13698 21.2095 5.78279 21.2095C5.41216 21.2095 5.18538 20.9252 5.18538 20.579V20.579ZM6.77974 20.579V19.5939H6.35152V19.8339C6.21569 19.6566 6.00968 19.5453 5.72952 19.5453C5.17758 19.5453 4.74444 19.9782 4.74444 20.5795C4.74444 21.1807 5.17734 21.6136 5.72952 21.6136C6.00956 21.6136 6.21569 21.5023 6.35152 21.3251V21.5642H6.77926V20.579H6.77974ZM21.249 20.579C21.249 20.2328 21.4757 19.9485 21.8465 19.9485C22.2011 19.9485 22.4397 20.2206 22.4397 20.579C22.4397 20.9374 22.2011 21.2095 21.8465 21.2095C21.4759 21.2095 21.249 20.9252 21.249 20.579ZM22.8438 20.579V18.8032H22.4152V19.8339C22.2794 19.6566 22.0734 19.5453 21.7932 19.5453C21.2413 19.5453 20.8082 19.9782 20.8082 20.5795C20.8082 21.1807 21.2411 21.6136 21.7932 21.6136C22.0734 21.6136 22.2794 21.5023 22.4152 21.3251V21.5642H22.8438V20.579ZM12.0946 19.9282C12.3706 19.9282 12.5478 20.1012 12.593 20.4059H11.5712C11.6169 20.1215 11.7896 19.9282 12.0947 19.9282H12.0946ZM12.1032 19.5443C11.5261 19.5443 11.1224 19.9642 11.1224 20.5784C11.1224 21.2046 11.5423 21.6126 12.1319 21.6126C12.4285 21.6126 12.7002 21.5385 12.9392 21.3366L12.7293 21.0192C12.5642 21.1512 12.354 21.2252 12.1564 21.2252C11.8804 21.2252 11.6292 21.0975 11.5674 20.7429H13.0296C13.0338 20.6896 13.0382 20.6359 13.0382 20.5783C13.0338 19.9643 12.6542 19.5441 12.103 19.5441L12.1032 19.5443ZM17.2732 20.5783C17.2732 20.2321 17.4999 19.9478 17.8706 19.9478C18.2248 19.9478 18.4638 20.2199 18.4638 20.5783C18.4638 20.9367 18.2248 21.2088 17.8706 21.2088C17.4999 21.2088 17.273 20.9244 17.273 20.5783H17.2732ZM18.8674 20.5783V19.5939H18.4394V19.8339C18.3031 19.6566 18.0976 19.5453 17.8174 19.5453C17.2655 19.5453 16.8323 19.9782 16.8323 20.5795C16.8323 21.1807 17.2652 21.6136 17.8174 21.6136C18.0976 21.6136 18.3031 21.5023 18.4394 21.3251V21.5642H18.8675V20.579L18.8674 20.5783ZM14.8549 20.5783C14.8549 21.1757 15.2707 21.6124 15.9054 21.6124C16.202 21.6124 16.3997 21.5464 16.6134 21.3776L16.4077 21.0315C16.2469 21.147 16.0781 21.2088 15.8918 21.2088C15.5499 21.2046 15.2986 20.9574 15.2986 20.5783C15.2986 20.1991 15.5499 19.9521 15.8918 19.9478C16.0776 19.9478 16.2464 20.0096 16.4077 20.1251L16.6134 19.7789C16.3993 19.6101 16.2017 19.5441 15.9054 19.5441C15.2707 19.5441 14.8549 19.9808 14.8549 20.5783V20.5783ZM20.3754 19.5441C20.1283 19.5441 19.9674 19.6597 19.8562 19.8327V19.5939H19.4318V21.5631H19.8605V20.4593C19.8605 20.1334 20.0005 19.9523 20.2805 19.9523C20.3721 19.951 20.4631 19.9678 20.5483 20.0019L20.6802 19.5982C20.5855 19.5609 20.4619 19.5445 20.3751 19.5445L20.3754 19.5441ZM8.89688 19.7505C8.69087 19.6147 8.40698 19.5445 8.09382 19.5445C7.59492 19.5445 7.27372 19.7836 7.27372 20.1749C7.27372 20.496 7.51285 20.6941 7.9532 20.7559L8.15549 20.7847C8.3903 20.8177 8.50117 20.8794 8.50117 20.9907C8.50117 21.1429 8.34519 21.2298 8.05231 21.2298C7.7557 21.2298 7.54165 21.135 7.39731 21.0238L7.19609 21.3577C7.4309 21.5307 7.72751 21.6133 8.04871 21.6133C8.61743 21.6133 8.94703 21.3455 8.94703 20.9705C8.94703 20.6244 8.68763 20.4433 8.25904 20.3815L8.05722 20.3522C7.87185 20.3282 7.72331 20.2909 7.72331 20.1589C7.72331 20.015 7.86333 19.9283 8.09826 19.9283C8.34963 19.9283 8.59296 20.0231 8.71222 20.0971L8.8976 19.751L8.89688 19.7505ZM14.4223 19.5449C14.1753 19.5449 14.0144 19.6604 13.9036 19.8334V19.5939H13.4792V21.5631H13.9075V20.4593C13.9075 20.1334 14.0475 19.9523 14.3274 19.9523C14.4191 19.951 14.5101 19.9678 14.5952 20.0019L14.7272 19.5982C14.6324 19.5609 14.5088 19.5445 14.4221 19.5445L14.4223 19.5449ZM10.768 19.5939H10.0678V18.9965H9.63491V19.5939H9.23548V19.9853H9.63491V20.8836C9.63491 21.3405 9.81225 21.6127 10.3188 21.6127C10.5047 21.6127 10.7187 21.5551 10.8546 21.4604L10.7309 21.0937C10.6031 21.1678 10.463 21.2051 10.3517 21.2051C10.1376 21.2051 10.0678 21.0731 10.0678 20.8755V19.9857H10.768V19.5939ZM4.36577 21.5636V20.3278C4.36577 19.8623 4.06916 19.5492 3.59102 19.545C3.33965 19.5408 3.08037 19.619 2.89883 19.8953C2.76301 19.677 2.54895 19.545 2.24803 19.545C2.0377 19.545 1.83216 19.6068 1.67126 19.8374V19.5939H1.24268V21.5631H1.67462V20.4713C1.67462 20.1294 1.8642 19.9478 2.15696 19.9478C2.44133 19.9478 2.58519 20.1331 2.58519 20.4669V21.5629H3.01809V20.471C3.01809 20.1292 3.21571 19.9475 3.49995 19.9475C3.79236 19.9475 3.9319 20.1329 3.9319 20.4667V21.5626L4.36577 21.5636Z" fill="#231F20"/>
<path d="M23.7686 15.0132V14.7252H23.6936L23.6068 14.9228L23.5205 14.7252H23.4453V15.0132H23.4986V14.7963L23.5797 14.9834H23.6349L23.716 14.7958V15.0132H23.7688H23.7686ZM23.2928 15.0132V14.7745H23.3888V14.7259H23.1436V14.7745H23.2395V15.0132H23.2923H23.2928Z" fill="#F79410"/>
<path d="M15.2449 16.2481H8.75537V4.58557H15.245L15.2449 16.2481Z" fill="#FF5F00"/>
<path d="M9.16686 10.4171C9.16686 8.05138 10.2746 5.94396 11.9995 4.58585C10.6938 3.55632 9.07889 2.99755 7.41615 3.00001C3.32023 3.00001 0 6.32071 0 10.4171C0 14.5135 3.32023 17.8342 7.41615 17.8342C9.07893 17.8367 10.6939 17.278 11.9996 16.2484C10.2748 14.8905 9.16686 12.783 9.16686 10.4171Z" fill="#EB001B"/>
<path d="M24.0002 10.4171C24.0002 14.5135 20.68 17.8342 16.584 17.8342C14.9211 17.8367 13.3059 17.2779 12 16.2484C13.7254 14.8903 14.8331 12.783 14.8331 10.4171C14.8331 8.05126 13.7254 5.94396 12 4.58585C13.3059 3.55635 14.921 2.99759 16.5839 3.00001C20.6798 3.00001 24.0001 6.32071 24.0001 10.4171" fill="#F79E1B"/>
</svg>
