<svg width="24" height="24" viewBox="0 0 24 24" fill="none" xmlns="http://www.w3.org/2000/svg">
<path fill-rule="evenodd" clip-rule="evenodd" d="M5.64709 0.00314331V11.9313C5.64709 18.4922 5.65333 23.8658 5.6628 23.8753C5.67223 23.8847 6.07759 23.8439 6.56781 23.7904C7.05803 23.737 7.73361 23.668 8.06987 23.6397C8.5852 23.5957 10.1313 23.4984 10.3073 23.4952C10.3607 23.4952 10.3638 23.2283 10.3701 18.4419L10.3795 13.4004L10.3764 13.3917V13.398L5.64709 0.00314331Z" fill="#B1060F"/>
<path fill-rule="evenodd" clip-rule="evenodd" d="M5.64709 0.00314331L10.3741 16.1231L10.3794 13.4005L10.3763 13.3918V13.398L5.64709 0.00314331Z" fill="#9D030F"/>
<path fill-rule="evenodd" clip-rule="evenodd" d="M14.1157 0.0189056L14.1063 5.2952L14.0969 10.5684L18.7853 23.8722C18.7826 23.8749 18.7702 23.8762 18.7499 23.8765C18.7733 23.8765 18.7879 23.8751 18.7916 23.8722C18.8073 23.8596 18.8104 18.4891 18.8073 11.9345L18.7978 0.0189056H14.1157Z" fill="#B1060F"/>
<path fill-rule="evenodd" clip-rule="evenodd" d="M14.0969 10.5684L18.5848 23.3035L14.1019 7.90141L14.0969 10.5684Z" fill="#9D030F"/>
<path fill-rule="evenodd" clip-rule="evenodd" d="M5.64709 0.00314621L10.3763 13.398V13.3918L10.7503 14.4471C12.8274 20.3232 13.9429 23.4764 13.9492 23.4827C13.9524 23.4858 14.2666 23.5047 14.6468 23.5235C15.7969 23.58 17.2235 23.7025 18.3077 23.8375C18.5559 23.869 18.7727 23.8847 18.7853 23.8721L14.0969 10.5683V10.5714L13.6632 9.34664C13.239 8.15002 12.9562 7.34914 11.2499 2.53138C10.7911 1.23429 10.4014 0.138198 10.3858 0.087947L10.3543 0H8.00069L5.64709 0.00314621Z" fill="#E50914"/>
</svg>
