<svg width="24" height="24" viewBox="0 0 24 24" fill="none" xmlns="http://www.w3.org/2000/svg">
<path d="M10.4042 15.6563H8.44588L9.66982 8.13441H11.6284L10.4042 15.6563ZM6.79839 8.13441L4.93139 13.3081L4.71046 12.194L4.71066 12.1944L4.05171 8.81167C4.05171 8.81167 3.97203 8.13441 3.12274 8.13441H0.0362174L0 8.26177C0 8.26177 0.943863 8.45815 2.04849 9.12153L3.7499 15.6565H5.79034L8.90604 8.13441H6.79839V8.13441ZM22.2018 15.6563H24L22.4322 8.13421H20.8579C20.131 8.13421 19.9539 8.69477 19.9539 8.69477L17.0332 15.6563H19.0746L19.4829 14.539H21.9724L22.2018 15.6563ZM20.0469 12.9956L21.0759 10.1807L21.6547 12.9956H20.0469ZM17.1863 9.94326L17.4658 8.32797C17.4658 8.32797 16.6034 8 15.7044 8C14.7326 8 12.4247 8.42475 12.4247 10.4901C12.4247 12.4334 15.1334 12.4575 15.1334 13.4783C15.1334 14.499 12.7038 14.3161 11.902 13.6724L11.6109 15.3614C11.6109 15.3614 12.4853 15.7861 13.8213 15.7861C15.1577 15.7861 17.1738 15.0942 17.1738 13.2109C17.1738 11.2551 14.4408 11.073 14.4408 10.2227C14.441 9.37223 16.3483 9.48149 17.1863 9.94326V9.94326Z" fill="#2566AF"/>
<path d="M4.71061 12.1942L4.05167 8.81153C4.05167 8.81153 3.97199 8.13428 3.1227 8.13428H0.036217L0 8.26164C0 8.26164 1.48349 8.56908 2.90641 9.72097C4.26696 10.822 4.71061 12.1942 4.71061 12.1942Z" fill="#E6A540"/>
</svg>
