<svg xmlns="http://www.w3.org/2000/svg" viewBox="0 0 129.58 48.38"><defs><style>.cls-1{fill:#650199;}</style></defs><g id="Camada_2" data-name="Camada 2"><g id="Camada_1-2" data-name="Camada 1"><g id="Camada_2-2" data-name="Camada 2"><g id="Camada_1-2-2" data-name="Camada 1-2"><g id="_650199ff" data-name=" 650199ff"><path class="cls-1" d="M47.29,0H48a6.41,6.41,0,1,1-4.26,1.32A6.58,6.58,0,0,1,47.29,0Z"/><path class="cls-1" d="M5.76,15.85A3.75,3.75,0,0,1,10.08,17a6.58,6.58,0,0,1,.73,1.29q4,8,8,16.09h.12l8.16-16.37a4.25,4.25,0,0,1,.71-1.15A3.75,3.75,0,0,1,32,15.84c1.28.56,2.55,1.14,3.83,1.71a3.46,3.46,0,0,1,1.93,3.15,3.91,3.91,0,0,1-.59,2L24.11,45.8a4.43,4.43,0,0,1-3.66,2.25H17.64A4.44,4.44,0,0,1,14,46.31a9.33,9.33,0,0,1-.69-1.14L.53,22.56A4.11,4.11,0,0,1,0,20.92v-.57a3.57,3.57,0,0,1,2-2.82C3.25,17,4.5,16.42,5.76,15.85Z"/><path class="cls-1" d="M63,16a3.76,3.76,0,0,1,4.26.63A4.15,4.15,0,0,1,68.16,18q2.7,5.43,5.39,10.84c.94,1.87,1.86,3.76,2.81,5.62l.13-.09q4.2-8.4,8.38-16.82a3.78,3.78,0,0,1,4.58-1.71c1.3.56,2.58,1.16,3.88,1.73a3.52,3.52,0,0,1,2,3,4,4,0,0,1-.57,2.1L81.88,45.36a8.86,8.86,0,0,1-.49.82A4.41,4.41,0,0,1,77.69,48h-2.9a4.45,4.45,0,0,1-3.48-2c-.24-.39-.45-.8-.68-1.18L58.26,22.94a4.75,4.75,0,0,1-.71-1.85,3.48,3.48,0,0,1,2.14-3.63C60.78,17,61.87,16.47,63,16Z"/><path class="cls-1" d="M108.61,16.36a16.36,16.36,0,0,1,21,15.13v1.06a16.35,16.35,0,0,1-10.35,14.71,16.74,16.74,0,0,1-5.41,1.12h-1.06a16.35,16.35,0,0,1-4.15-32m3.46,9.34a6.46,6.46,0,1,0,4.45.79,6.45,6.45,0,0,0-4.45-.79Z"/><path class="cls-1" d="M45.17,16.12a4,4,0,0,1,.92-.08h3.33a3.94,3.94,0,0,1,3.84,4V43.28a6.74,6.74,0,0,1-.13,1.85,4,4,0,0,1-2.39,2.65,4.26,4.26,0,0,1-1.59.27H45.82a4,4,0,0,1-3.58-2.74,6.48,6.48,0,0,1-.19-2.2V20.89a6.3,6.3,0,0,1,.16-2A4,4,0,0,1,45.17,16.12Z"/></g></g></g></g></g></svg>