<svg width="24" height="24" viewBox="0 0 24 24" fill="none" xmlns="http://www.w3.org/2000/svg">
<path fill-rule="evenodd" clip-rule="evenodd" d="M14.8884 14.1211C13.4989 15.1485 11.4778 15.6958 9.73469 15.6958C7.29258 15.6958 5.10311 14.7948 3.43574 13.2958C3.30942 13.1779 3.4189 13.0179 3.5789 13.1106C5.37258 14.1548 7.58732 14.7779 9.87784 14.7779C11.4189 14.7779 13.12 14.4579 14.6863 13.7927C14.9221 13.7 15.1157 13.9527 14.8884 14.1211Z" fill="#FF9900"/>
<path fill-rule="evenodd" clip-rule="evenodd" d="M15.4695 13.4559C15.2927 13.2285 14.2906 13.3464 13.8442 13.4053C13.7095 13.4222 13.6842 13.3043 13.8106 13.2201C14.6106 12.6559 15.9158 12.8243 16.0674 13.0095C16.219 13.1948 16.0253 14.5085 15.2758 15.1316C15.1579 15.2243 15.0485 15.1738 15.099 15.0474C15.2674 14.6264 15.6464 13.6916 15.4695 13.4559Z" fill="#FF9900"/>
<path fill-rule="evenodd" clip-rule="evenodd" d="M13.8695 9.26216V8.71479C13.8695 8.63058 13.9284 8.58005 14.0042 8.58005H16.4463C16.5221 8.58005 16.5895 8.639 16.5895 8.71479V9.17795C16.5895 9.25374 16.5221 9.35479 16.4042 9.52321L15.1411 11.3253C15.6126 11.3169 16.1095 11.3843 16.5305 11.6201C16.6232 11.6706 16.6484 11.7548 16.6568 11.8306V12.4116C16.6568 12.4958 16.5726 12.5885 16.48 12.5379C15.7305 12.1422 14.7284 12.1001 13.9032 12.5464C13.8189 12.5885 13.7263 12.5043 13.7263 12.4201V11.8643C13.7263 11.7801 13.7263 11.6285 13.8189 11.4937L15.2842 9.3969H14.0126C13.9368 9.3969 13.8695 9.33795 13.8695 9.26216V9.26216ZM4.96842 12.6558H4.22737C4.16 12.6474 4.10105 12.5969 4.09263 12.5295L4.09263 8.72321C4.09263 8.64742 4.16 8.58848 4.23579 8.58848H4.92632C5.00211 8.58848 5.05263 8.64742 5.06105 8.71479V9.21163H5.0779C5.25474 8.73163 5.6 8.50426 6.05474 8.50426C6.51789 8.50426 6.81263 8.73163 7.01474 9.21163C7.19158 8.73163 7.60421 8.50426 8.04211 8.50426C8.35368 8.50426 8.69053 8.63058 8.90105 8.92532C9.13684 9.24532 9.08632 9.70848 9.08632 10.1211V12.5295C9.08632 12.6053 9.01895 12.6643 8.94316 12.6643H8.21053C8.13474 12.6558 8.07579 12.5969 8.07579 12.5295V10.5085C8.07579 10.3485 8.09263 9.94426 8.05895 9.79268C8 9.54005 7.84 9.46426 7.62105 9.46426C7.44421 9.46426 7.25053 9.58216 7.17474 9.77584C7.09895 9.96953 7.10737 10.2895 7.10737 10.5085L7.10737 12.5295C7.10737 12.6053 7.04 12.6643 6.96421 12.6643H6.22316C6.14737 12.6558 6.08842 12.5969 6.08842 12.5295L6.08842 10.5085C6.08842 10.0874 6.15579 9.45584 5.63368 9.45584C5.10316 9.45584 5.12 10.0622 5.12 10.5085L5.12 12.5295C5.11158 12.5969 5.05263 12.6558 4.96842 12.6558V12.6558ZM18.6947 8.50426C19.7979 8.50426 20.3958 9.44742 20.3958 10.6516C20.3958 11.8137 19.7389 12.7401 18.6947 12.7401C17.6168 12.7401 17.0274 11.7969 17.0274 10.6179C17.0189 9.43058 17.6168 8.50426 18.6947 8.50426ZM18.6947 9.28742C18.1474 9.28742 18.1137 10.0369 18.1137 10.5001C18.1137 10.9632 18.1053 11.9569 18.6863 11.9569C19.2589 11.9569 19.2926 11.1569 19.2926 10.6685C19.2926 10.3485 19.2758 9.96111 19.1832 9.65795C19.0989 9.38848 18.9305 9.28742 18.6947 9.28742ZM21.8189 12.6558H21.0779C21.0021 12.6474 20.9432 12.5885 20.9432 12.5211V8.70637C20.9516 8.639 21.0105 8.58005 21.0863 8.58005L21.7768 8.58005C21.8442 8.58005 21.8947 8.63058 21.9116 8.68953V9.27058H21.9284C22.1389 8.74848 22.4253 8.50426 22.9389 8.50426C23.2674 8.50426 23.5958 8.62216 23.8063 8.95058C24 9.25374 24 9.76742 24 10.1379V12.5379C23.9916 12.6053 23.9326 12.6558 23.8568 12.6558H23.1158C23.0484 12.6474 22.9895 12.5969 22.9811 12.5379V10.4664C22.9811 10.0453 23.0316 9.439 22.5179 9.439C22.3411 9.439 22.1726 9.5569 22.0884 9.74216C21.9874 9.97795 21.9705 10.2053 21.9705 10.4664V12.5211C21.9621 12.5969 21.8947 12.6558 21.8189 12.6558V12.6558ZM11.9242 10.8369C11.9242 11.1232 11.9326 11.3674 11.7895 11.6285C11.6716 11.839 11.4863 11.9653 11.2758 11.9653C10.9895 11.9653 10.8211 11.7464 10.8211 11.4264C10.8211 10.7948 11.3853 10.6769 11.9242 10.6769V10.8369ZM12.6737 12.6474C12.6232 12.6895 12.5558 12.6979 12.4968 12.6643C12.2526 12.4622 12.2021 12.3611 12.0674 12.1674C11.6632 12.5801 11.3684 12.7064 10.8463 12.7064C10.2232 12.7064 9.73474 12.319 9.73474 11.5527C9.73474 10.9464 10.0632 10.5422 10.5263 10.3401C10.9305 10.1632 11.4947 10.1295 11.9242 10.079V9.98637C11.9242 9.80953 11.9411 9.599 11.8316 9.44742C11.7389 9.31269 11.5705 9.25374 11.4189 9.25374C11.1326 9.25374 10.88 9.3969 10.8211 9.70005C10.8042 9.76742 10.7621 9.83479 10.6947 9.83479L9.97895 9.759C9.92 9.74216 9.85263 9.70005 9.86948 9.60742C10.0379 8.73163 10.8211 8.47058 11.5284 8.47058C11.8905 8.47058 12.3621 8.56321 12.6484 8.84111C13.0105 9.17795 12.9768 9.63269 12.9768 10.1211V11.2748C12.9768 11.6201 13.12 11.7716 13.2547 11.9653C13.3053 12.0327 13.3137 12.1169 13.2547 12.159C13.0947 12.2853 12.8253 12.5211 12.6737 12.6474V12.6474ZM2.1979 10.8369C2.1979 11.1232 2.20632 11.3674 2.06316 11.6285C1.94526 11.839 1.76 11.9653 1.54947 11.9653C1.26316 11.9653 1.09474 11.7464 1.09474 11.4264C1.09474 10.7948 1.65895 10.6769 2.1979 10.6769V10.8369ZM2.93895 12.6474C2.88842 12.6895 2.82105 12.6979 2.76211 12.6643C2.5179 12.4622 2.46737 12.3611 2.33263 12.1674C1.92842 12.5801 1.63368 12.7064 1.11158 12.7064C0.488421 12.7064 0 12.319 0 11.5527C0 10.9464 0.328421 10.5422 0.791578 10.3401C1.19579 10.1632 1.76 10.1295 2.18947 10.079V9.98637C2.18947 9.80953 2.20632 9.599 2.09684 9.44742C2.00421 9.31269 1.83579 9.25374 1.68421 9.25374C1.39789 9.25374 1.14526 9.3969 1.08632 9.70005C1.06947 9.76742 1.02737 9.83479 0.96 9.83479L0.24421 9.759C0.185263 9.74216 0.117895 9.70005 0.134737 9.60742C0.303158 8.73163 1.08632 8.47058 1.79368 8.47058C2.15579 8.47058 2.62737 8.56321 2.91368 8.84111C3.27579 9.17795 3.24211 9.63269 3.24211 10.1211L3.24211 11.2748C3.24211 11.6201 3.38526 11.7716 3.52 11.9653C3.57053 12.0327 3.57895 12.1169 3.52 12.159C3.36 12.2853 3.09053 12.5211 2.93895 12.6474V12.6474Z" fill="black"/>
</svg>
