<svg width="24" height="24" viewBox="0 0 24 24" fill="none" xmlns="http://www.w3.org/2000/svg">
<path fill-rule="evenodd" clip-rule="evenodd" d="M0.376509 7.76471H2.52406L3.40538 9.31929H2.14759L3.03744 10.8568H0.889851L0 9.31929H1.20644L0.376509 7.76471Z" fill="#FF6600"/>
<path fill-rule="evenodd" clip-rule="evenodd" d="M6.78488 7.76471H4.62867L3.73898 9.31929H5.00526L4.10688 10.8568H6.26308L7.14432 9.31929H5.9208L6.78488 7.76471Z" fill="#FF6600"/>
<path fill-rule="evenodd" clip-rule="evenodd" d="M0.387349 14.4217H2.49126L3.36651 12.8758H2.12939L3.00464 11.355H0.892273L0.00860596 12.8758H1.19526L0.387349 14.4217Z" fill="#FF6600"/>
<path fill-rule="evenodd" clip-rule="evenodd" d="M6.80214 14.4218H4.64593L3.7562 12.85H5.02252L4.12413 11.3039H6.28034L7.1528 12.85H5.93806L6.80214 14.4218Z" fill="#FF6600"/>
<path fill-rule="evenodd" clip-rule="evenodd" d="M11.2899 10.3217C11.2223 9.97109 10.9972 9.79325 10.6138 9.78834C10.0514 9.79165 9.7727 10.1785 9.77769 10.9506C9.77601 11.3186 9.82137 11.6099 9.91293 11.8256C10.0358 12.1162 10.2749 12.2635 10.6302 12.2668C10.8075 12.2652 10.9609 12.2158 11.0895 12.1187C11.2181 12.0215 11.294 11.8833 11.3162 11.7046L11.3237 11.6133H12.022L12.0146 11.7121C11.994 11.9631 11.8967 12.1804 11.7227 12.3632C11.5611 12.5344 11.3542 12.6546 11.1019 12.7253C10.9402 12.7739 10.7762 12.7969 10.6088 12.7953C10.0968 12.792 9.70425 12.6241 9.43218 12.2916C9.19884 12.0051 9.08092 11.5894 9.07928 11.0445C9.07928 10.7679 9.11555 10.5061 9.18811 10.2584C9.2813 9.92996 9.46349 9.68135 9.73397 9.51097C9.99371 9.34633 10.2955 9.26319 10.6401 9.25992C10.838 9.26156 11.0301 9.29283 11.2157 9.35375C11.4086 9.41961 11.5677 9.51507 11.6939 9.63854C11.7837 9.72746 11.8563 9.83198 11.9116 9.95218C11.966 10.0732 11.9957 10.1901 12.0006 10.3045V10.4082H11.3022L11.2899 10.3212L11.2899 10.3217ZM12.4636 11.0469C12.4636 10.7078 12.5163 10.3983 12.6227 10.1184C12.6845 9.94967 12.7851 9.79903 12.9253 9.66735C13.0539 9.5422 13.1966 9.44837 13.3524 9.38746C13.5668 9.30432 13.8001 9.26148 14.0533 9.25988C14.5232 9.26315 14.8943 9.39815 15.1663 9.66483C15.3098 9.80641 15.4145 9.96283 15.4805 10.1332C15.5786 10.3917 15.6281 10.6814 15.6281 11.0008C15.6231 12.1927 15.0996 12.7903 14.0581 12.7953C12.995 12.7905 12.4632 12.2076 12.4632 11.047L12.4636 11.0469ZM13.1617 11.0082C13.1568 11.8503 13.4528 12.2701 14.0505 12.2668C14.6319 12.2733 14.9246 11.8585 14.9295 11.023C14.9295 10.725 14.8817 10.4616 14.7868 10.232C14.6697 9.93814 14.4249 9.78994 14.053 9.7883C13.9227 9.7883 13.7991 9.81056 13.6836 9.8558C13.3314 9.989 13.1574 10.3734 13.1622 11.0081L13.1617 11.0082ZM16.1876 9.32734H17.3741C17.506 9.33065 17.6306 9.33807 17.7485 9.34876C17.8721 9.3636 17.9867 9.39077 18.0915 9.43106C18.2745 9.50187 18.4197 9.62865 18.526 9.81216C18.6192 9.97105 18.6662 10.1595 18.6662 10.3768C18.6678 10.7563 18.5458 11.0304 18.2993 11.1992C18.0964 11.3375 17.7979 11.414 17.4055 11.428L17.1664 11.433H16.886V12.7278H16.1876V9.32738H16.1884L16.1876 9.32734ZM16.8857 9.85584V10.9045H17.171C17.2675 10.9062 17.3639 10.9012 17.4604 10.8897C17.7936 10.8559 17.9626 10.6822 17.9675 10.3669C17.9692 10.0377 17.7828 9.86813 17.4101 9.85827L17.171 9.8558H16.8859L16.8858 9.85584H16.8857ZM21.2532 9.32734V9.85584H19.7031V10.7061H21.1591V11.2346H19.7031V12.1993H21.3018V12.7278H19.0047V9.32738H21.2529H21.2531L21.2532 9.32734ZM22.4663 9.32734V12.1993H23.8985V12.7278H21.7679V9.32738H22.4664L22.4663 9.32734Z" fill="#FF6600"/>
<path d="M10.432 15.2224L10.4278 15.2535C10.4689 15.2784 10.5092 15.3003 10.548 15.316C10.5876 15.332 10.6254 15.3416 10.661 15.3412H10.661C10.6674 15.3412 10.6736 15.342 10.6795 15.3437C10.6849 15.3451 10.69 15.3472 10.6948 15.3499C10.774 15.3463 10.8487 15.3213 10.9189 15.2747C10.99 15.2274 11.0566 15.1581 11.1188 15.0669C11.1833 14.9719 11.2318 14.8671 11.2642 14.7525C11.2965 14.638 11.3128 14.5134 11.3128 14.379C11.3128 14.3276 11.3086 14.282 11.3004 14.2424C11.2921 14.2029 11.2799 14.169 11.2636 14.1411C11.2475 14.1135 11.2283 14.0929 11.2061 14.0793C11.1839 14.0657 11.1585 14.059 11.1298 14.059C11.0829 14.059 11.0338 14.0822 10.9822 14.1286C10.9298 14.1757 10.8751 14.2465 10.8181 14.3408C10.7606 14.436 10.6997 14.5571 10.6353 14.7043C10.5706 14.8511 10.5028 15.0238 10.4318 15.2225L10.432 15.2224ZM10.4053 15.398C10.3924 15.4705 10.3779 15.5386 10.3618 15.6024C10.3449 15.6694 10.3263 15.7315 10.306 15.7887C10.2786 15.8657 10.2526 15.9237 10.228 15.9625C10.2023 16.0032 10.1776 16.0235 10.154 16.0235C10.1471 16.0235 10.1407 16.0219 10.1347 16.0188C10.1289 16.0158 10.1236 16.0114 10.1186 16.0057L10.1184 16.0055C10.1137 15.9996 10.1102 15.9934 10.1077 15.9868C10.1052 15.9802 10.104 15.9733 10.104 15.9661C10.104 15.8977 10.1387 15.7477 10.2081 15.5155C10.218 15.4826 10.2286 15.4487 10.2396 15.4141C10.25 15.3816 10.2609 15.3488 10.272 15.3157L10.2382 15.2934H10.2381C10.17 15.2484 10.1007 15.2026 10.0324 15.1687C9.9645 15.1351 9.89732 15.1131 9.83286 15.1152C9.79229 15.1165 9.74489 15.1286 9.69371 15.1484C9.63551 15.1708 9.57236 15.203 9.50881 15.2404C9.42854 15.2875 9.34812 15.3427 9.27508 15.3972C9.18077 15.4675 9.09879 15.5366 9.04545 15.5858C9.03161 15.5985 9.01386 15.6044 8.99646 15.6038C8.97903 15.603 8.96184 15.5956 8.94907 15.5818C8.93634 15.5679 8.9304 15.5502 8.93112 15.5328C8.93184 15.5153 8.93922 15.4981 8.9531 15.4854C9.00879 15.434 9.09464 15.3616 9.19373 15.2878C9.27037 15.2308 9.35506 15.1727 9.43991 15.1229C9.51244 15.0803 9.5856 15.0435 9.65486 15.0178C9.71665 14.9949 9.77557 14.9807 9.82855 14.979C9.91512 14.9763 9.99825 15.0012 10.0789 15.0396C10.1591 15.0777 10.2369 15.1291 10.3134 15.1796L10.3182 15.1829C10.3412 15.1189 10.3658 15.0533 10.392 14.986C10.4192 14.9163 10.4477 14.8458 10.4776 14.7747C10.5362 14.6348 10.5939 14.5125 10.6503 14.4081C10.7068 14.3036 10.7624 14.2167 10.8171 14.1478C10.8718 14.0784 10.9262 14.0263 10.9799 13.9915C11.0343 13.9563 11.0882 13.9388 11.1415 13.9388C11.1861 13.9388 11.2262 13.9492 11.2619 13.97C11.2974 13.9908 11.3284 14.0219 11.3549 14.0633V14.0633C11.3811 14.1045 11.4006 14.153 11.4137 14.2087C11.4267 14.2642 11.4332 14.327 11.4332 14.397C11.4332 14.5526 11.4148 14.6942 11.3781 14.8218C11.3413 14.9495 11.2861 15.0632 11.2127 15.1628C11.1451 15.2545 11.0689 15.3252 10.9841 15.3749C10.8999 15.4243 10.8072 15.4529 10.7062 15.4606C10.7005 15.4655 10.6939 15.4696 10.6868 15.4724C10.6792 15.4754 10.6708 15.4772 10.6622 15.4772C10.6172 15.4776 10.5726 15.4689 10.5284 15.454C10.4877 15.4408 10.4466 15.4213 10.4059 15.3985L10.4053 15.398ZM13.2508 15.4897C13.3017 15.4507 13.3582 15.4067 13.4203 15.3575L13.4234 15.3497L13.4235 15.3495L13.4275 15.34C13.4403 15.31 13.4564 15.2803 13.4757 15.2508C13.4949 15.2215 13.5175 15.1924 13.5432 15.1636L13.5433 15.1635C13.5867 15.1161 13.6343 15.0734 13.6859 15.0356C13.7377 14.9976 13.7935 14.9644 13.8533 14.9361C13.9129 14.9078 13.9718 14.8866 14.0297 14.8725C14.0878 14.8583 14.1449 14.8513 14.2009 14.8513C14.2241 14.8513 14.246 14.8524 14.2667 14.8547C14.2873 14.857 14.3067 14.8605 14.325 14.8652C14.343 14.8697 14.3609 14.8758 14.3783 14.8833C14.3958 14.8908 14.4134 14.9001 14.4307 14.9108L14.4342 14.9129L14.434 14.917L14.4286 15.0179L14.428 15.0301L14.4179 15.0233C14.4 15.0113 14.3821 15.0009 14.3644 14.9923C14.3467 14.9836 14.329 14.9765 14.3115 14.9711C14.2938 14.9657 14.2754 14.9616 14.2565 14.9587C14.2376 14.956 14.2182 14.9546 14.1981 14.9546C14.1501 14.9546 14.1009 14.9608 14.0507 14.9733C14.0002 14.9858 13.9484 15.0044 13.8954 15.0292C13.8426 15.054 13.7946 15.0823 13.7516 15.1139C13.7086 15.1454 13.6707 15.1803 13.6378 15.2184C13.6167 15.2427 13.5979 15.2677 13.5818 15.2933C13.5657 15.3187 13.552 15.3448 13.5409 15.3715V15.3716C13.5182 15.4247 13.5068 15.4765 13.5068 15.5279C13.5068 15.5573 13.5099 15.5837 13.5161 15.6069C13.5223 15.63 13.5315 15.65 13.5436 15.6668C13.5558 15.6834 13.5701 15.696 13.5862 15.7043C13.6022 15.7125 13.6204 15.7167 13.6405 15.7167C13.6656 15.7167 13.6943 15.7061 13.7266 15.685C13.7595 15.6635 13.7962 15.631 13.8364 15.5878C13.8766 15.5443 13.9295 15.4787 13.9948 15.3909C14.0597 15.3038 14.1368 15.1949 14.2262 15.0642L14.2285 15.0608L14.2325 15.0612L14.3368 15.0714L14.3465 15.0724L14.3424 15.0812L14.0912 15.6189C14.0888 15.6248 14.0866 15.6309 14.0847 15.6367V15.6368L14.0826 15.6425H14.0827C14.0815 15.6463 14.0805 15.6495 14.0799 15.6521C14.0794 15.6544 14.0791 15.6562 14.0791 15.6571C14.0791 15.6596 14.0795 15.6619 14.0801 15.664C14.0807 15.6662 14.0817 15.6682 14.083 15.67L14.0831 15.67L14.0834 15.6705C14.0844 15.6722 14.0856 15.6735 14.0866 15.6743C14.0874 15.6748 14.0882 15.6751 14.0891 15.6751C14.0946 15.6751 14.1089 15.6681 14.1317 15.6542C14.1555 15.6397 14.1878 15.6179 14.2288 15.5887H14.2287C14.2701 15.5591 14.3172 15.5241 14.3699 15.4838C14.4221 15.4439 14.4804 15.3983 14.5448 15.3471L14.556 15.3381V15.4621L14.554 15.4637L14.5216 15.4885C14.3689 15.6066 14.2467 15.6953 14.1551 15.7545C14.0625 15.8143 14.0003 15.8442 13.9686 15.8442C13.9611 15.8442 13.9539 15.8424 13.9471 15.8389C13.9406 15.8355 13.9344 15.8306 13.9285 15.8243L13.9284 15.8242C13.9227 15.8177 13.9183 15.8103 13.9155 15.8023C13.9126 15.7943 13.9111 15.7856 13.9111 15.7762C13.9111 15.7714 13.9119 15.7652 13.9136 15.7577C13.9153 15.7505 13.9177 15.7421 13.9208 15.7326C13.9236 15.7233 13.9273 15.7127 13.9319 15.701V15.7009C13.9363 15.6893 13.9413 15.6771 13.9467 15.6645L13.9468 15.6644L14.0031 15.5379C13.975 15.5773 13.9481 15.6125 13.9226 15.6435C13.8845 15.6895 13.8492 15.7263 13.8164 15.7536C13.7838 15.7811 13.7511 15.8017 13.7185 15.8155C13.6857 15.8294 13.653 15.8363 13.6204 15.8363C13.5863 15.8363 13.5553 15.829 13.5274 15.8147H13.5273C13.4997 15.8005 13.475 15.7791 13.4538 15.7507C13.4326 15.7224 13.4165 15.6897 13.4058 15.6527C13.3952 15.6158 13.3899 15.5747 13.3899 15.5296C13.3899 15.5229 13.3902 15.5156 13.3905 15.5085L13.3908 15.5031L13.3816 15.5102V15.5102C13.2389 15.621 13.1242 15.7042 13.0375 15.7598C12.9497 15.8161 12.8901 15.8443 12.8588 15.8443C12.8502 15.8443 12.8424 15.8422 12.8352 15.8381C12.8283 15.8341 12.8222 15.8282 12.8167 15.8205V15.8204C12.8115 15.8129 12.8076 15.8042 12.805 15.7946C12.8025 15.7853 12.8012 15.7748 12.8012 15.7635C12.8012 15.7582 12.802 15.7521 12.8034 15.7451C12.8048 15.7383 12.8068 15.7308 12.8095 15.7225C12.8119 15.7145 12.8151 15.7054 12.8189 15.6955C12.8228 15.6854 12.827 15.6751 12.8315 15.6647V15.6646L13.0551 15.1672V15.1671L13.0596 15.1575L13.0595 15.1575C13.0657 15.1438 13.0735 15.1268 13.084 15.1051C13.0956 15.0805 13.1044 15.0609 13.1101 15.0462C13.1156 15.0323 13.1184 15.0235 13.1184 15.0194C13.1179 15.0115 13.1095 15.0044 13.0936 14.9984C13.0754 14.9915 13.048 14.9866 13.0116 14.9838C12.9926 14.9825 12.9757 14.9812 12.9609 14.9798C12.9482 14.9787 12.9365 14.9775 12.926 14.9763C12.9 15.0278 12.8717 15.0769 12.8408 15.1237C12.8091 15.1717 12.775 15.2172 12.7383 15.2599C12.7076 15.2961 12.6745 15.331 12.6393 15.3644C12.6036 15.3983 12.5656 15.4306 12.5261 15.4611L12.5127 15.4716C12.426 15.5397 12.3505 15.5974 12.2863 15.6449C12.2212 15.693 12.168 15.7303 12.1268 15.7569C12.0844 15.7841 12.0479 15.8045 12.0174 15.8182C11.9864 15.8321 11.9612 15.839 11.9421 15.839C11.9335 15.839 11.9257 15.8369 11.9186 15.8328C11.9117 15.8288 11.9055 15.8229 11.9001 15.8153L11.9 15.8152C11.8948 15.8076 11.8909 15.799 11.8884 15.7894C11.8859 15.78 11.8846 15.7696 11.8846 15.7582C11.8846 15.7529 11.8853 15.7467 11.8867 15.7395C11.8881 15.7328 11.8901 15.7249 11.8928 15.716C11.8953 15.7072 11.8985 15.698 11.9023 15.6885C11.9059 15.6791 11.9103 15.6693 11.915 15.6592L12.1369 15.1846C12.0485 15.2764 11.9652 15.3593 11.8869 15.4337C11.7992 15.517 11.7176 15.5896 11.6425 15.6515C11.5681 15.7127 11.5056 15.7587 11.4555 15.7894C11.4042 15.8207 11.3651 15.8365 11.3383 15.8365C11.3278 15.8365 11.3185 15.8347 11.3104 15.8314C11.3021 15.8278 11.295 15.8226 11.2894 15.8157C11.2837 15.809 11.2795 15.8005 11.2767 15.7902C11.2741 15.7804 11.2728 15.7688 11.2728 15.7556C11.2728 15.7488 11.2734 15.7413 11.2747 15.7331C11.2759 15.7255 11.2777 15.7173 11.2802 15.7089C11.2827 15.7001 11.2858 15.6911 11.2894 15.682C11.2928 15.6735 11.2966 15.6649 11.301 15.6564V15.6563L11.4429 15.3763C11.4372 15.3812 11.4315 15.3861 11.4257 15.391C11.4102 15.404 11.3952 15.4162 11.3806 15.4275V15.4274C11.3657 15.4393 11.3509 15.4503 11.3363 15.4605C11.3214 15.471 11.3064 15.481 11.2913 15.4904L11.2808 15.4968V15.3742L11.2836 15.3721C11.3181 15.3472 11.3507 15.322 11.3811 15.2966C11.4115 15.2713 11.4399 15.2457 11.4661 15.22C11.4922 15.1944 11.5129 15.1724 11.5284 15.1542C11.5437 15.1363 11.5536 15.1221 11.5583 15.1118L11.5583 15.1116L11.675 14.8729L11.6769 14.869H11.8061L11.8014 14.8789L11.4719 15.5701L11.4689 15.5778C11.4662 15.5849 11.4639 15.591 11.4624 15.5958C11.4614 15.5993 11.4606 15.6024 11.4602 15.605C11.4598 15.6075 11.4596 15.6096 11.4596 15.6115C11.4596 15.6176 11.46 15.6229 11.4608 15.6272C11.4615 15.6311 11.4626 15.6342 11.4639 15.6363L11.464 15.6365C11.4653 15.6387 11.4666 15.6404 11.4679 15.6413V15.6413C11.4687 15.6419 11.4697 15.6423 11.4709 15.6423C11.4858 15.6423 11.5178 15.6236 11.5667 15.5863C11.6165 15.5484 11.6831 15.4914 11.7661 15.4156C11.8498 15.3396 11.9349 15.2561 12.0211 15.1653C12.1069 15.0749 12.1942 14.9769 12.2828 14.8715L12.2849 14.869H12.4133L12.4088 14.8788L12.0682 15.6156L12.0664 15.6197C12.0632 15.6273 12.0603 15.6339 12.0586 15.639V15.639C12.0576 15.6419 12.0569 15.6445 12.0565 15.6465V15.6466C12.0561 15.6487 12.0558 15.6504 12.0558 15.6518C12.0558 15.6542 12.0561 15.6564 12.0566 15.6583L12.0567 15.6584C12.0572 15.6604 12.058 15.6623 12.0592 15.6641V15.6641C12.0603 15.6658 12.0615 15.6671 12.0627 15.668C12.0634 15.6686 12.0643 15.669 12.0652 15.6693C12.0708 15.6688 12.0838 15.6623 12.104 15.65C12.1258 15.6366 12.1553 15.6166 12.1923 15.59L12.1924 15.59C12.2274 15.5649 12.2702 15.5334 12.3206 15.4954C12.3688 15.459 12.4245 15.4164 12.4875 15.3674L12.4982 15.3591H12.4983L12.5177 15.344C12.5461 15.3213 12.5747 15.2957 12.6022 15.2683C12.6289 15.2417 12.6547 15.2133 12.6786 15.1839C12.7094 15.1462 12.7378 15.1066 12.7637 15.0654C12.7885 15.0259 12.8111 14.9847 12.8317 14.9418C12.8247 14.9372 12.8186 14.9323 12.8134 14.9272C12.8068 14.9208 12.8015 14.9139 12.7976 14.9067C12.7935 14.8995 12.7905 14.8913 12.7886 14.8823C12.7866 14.8733 12.7856 14.8632 12.7856 14.8525C12.7856 14.8348 12.7879 14.8188 12.7923 14.8044C12.7968 14.79 12.8038 14.7771 12.813 14.7657C12.8222 14.7544 12.8329 14.7458 12.8449 14.74C12.857 14.7342 12.8703 14.7313 12.8848 14.7313C12.8968 14.7313 12.9079 14.7335 12.918 14.7377C12.9281 14.742 12.9372 14.7485 12.9452 14.7568C12.9535 14.7653 12.9595 14.7748 12.9635 14.7854C12.9675 14.7959 12.9694 14.8074 12.9694 14.8196C12.9694 14.8256 12.9692 14.8313 12.9687 14.8366C12.9682 14.8419 12.9676 14.8471 12.9666 14.8523V14.8524C12.9657 14.8571 12.9646 14.862 12.9634 14.8673L12.9616 14.8739C12.9696 14.8738 12.9774 14.8737 12.9848 14.8736C12.9955 14.8733 13.0066 14.873 13.0178 14.8726L13.0262 14.8716H13.0263C13.0289 14.8714 13.0307 14.8713 13.0317 14.8713C13.0685 14.8713 13.1001 14.8737 13.1264 14.8787C13.1531 14.8837 13.1747 14.8913 13.191 14.9015C13.2078 14.912 13.2204 14.9257 13.2288 14.9427C13.2372 14.9596 13.2413 14.9796 13.2413 15.0026C13.2413 15.011 13.2402 15.0203 13.2383 15.0305C13.2362 15.0404 13.2333 15.0514 13.2294 15.0632V15.0632C13.2253 15.0752 13.2186 15.0924 13.2093 15.1147C13.2003 15.1365 13.1886 15.1633 13.1745 15.1949L12.9843 15.6163L12.9799 15.6292C12.9784 15.6335 12.977 15.6378 12.9757 15.6419C12.9745 15.6461 12.9734 15.6495 12.9728 15.6522C12.9723 15.6544 12.972 15.6559 12.972 15.6567C12.972 15.6592 12.9723 15.6615 12.9728 15.6636C12.9734 15.6656 12.9742 15.6676 12.9753 15.6694C12.9765 15.6711 12.9776 15.6724 12.9789 15.6733H12.9788C12.9796 15.6739 12.9804 15.6743 12.9813 15.6745C12.9874 15.6741 13.0012 15.6672 13.0229 15.6539C13.0461 15.6396 13.0776 15.6181 13.1173 15.5896C13.156 15.5616 13.2011 15.5281 13.2517 15.489L13.2508 15.4897Z" fill="#FF6600"/>
<path d="M21.2869 15.4483L21.2787 15.455L21.2786 15.4551C21.1357 15.5658 21.0209 15.6489 20.9344 15.7044C20.8467 15.7606 20.7871 15.7886 20.7558 15.7886C20.7379 15.7886 20.7231 15.7805 20.7119 15.7644H20.712C20.7063 15.7564 20.7022 15.7475 20.6996 15.7376V15.7376C20.6969 15.7278 20.6956 15.717 20.6956 15.7051C20.6956 15.6987 20.6962 15.6917 20.6975 15.6841C20.6987 15.6769 20.7006 15.6693 20.7031 15.6611H20.703C20.7055 15.6528 20.7085 15.6443 20.7123 15.6354C20.716 15.6266 20.7204 15.6176 20.7253 15.6084L20.8707 15.3236C20.801 15.3849 20.727 15.4412 20.6525 15.498C20.5701 15.5606 20.487 15.6239 20.4085 15.6947V15.6948C20.3527 15.7449 20.2981 15.797 20.2447 15.851C20.1921 15.9043 20.1403 15.9599 20.0895 16.0175C20.0472 16.125 20.0105 16.2138 19.9793 16.284C19.948 16.3545 19.9224 16.4061 19.9023 16.4387C19.8818 16.4714 19.8616 16.4961 19.8414 16.5127C19.8207 16.5298 19.7999 16.5385 19.7792 16.5385C19.7701 16.5385 19.7616 16.5366 19.7538 16.5328C19.7463 16.529 19.7394 16.5234 19.7335 16.5159L19.7333 16.5157C19.7278 16.5082 19.7235 16.4996 19.7206 16.4899C19.7179 16.4803 19.7164 16.4695 19.7164 16.4576C19.7164 16.4215 19.7235 16.3808 19.7377 16.3356C19.7518 16.2908 19.7729 16.2413 19.8011 16.1873H19.8011C19.8291 16.1334 19.8616 16.081 19.8986 16.0302C19.9352 15.9799 19.9763 15.9312 20.0219 15.8841L20.2149 15.4523C20.1771 15.5004 20.1417 15.5429 20.1089 15.5796C20.066 15.6277 20.0273 15.6664 19.9927 15.6953V15.6949C19.958 15.7241 19.925 15.746 19.8938 15.7606C19.862 15.7754 19.8319 15.7829 19.8036 15.7829C19.7692 15.7829 19.7376 15.7755 19.7092 15.7607C19.6811 15.746 19.656 15.7239 19.6345 15.6947C19.6126 15.6655 19.5963 15.6319 19.5854 15.5941C19.5751 15.5582 19.5696 15.5184 19.5692 15.4748C19.436 15.5776 19.3287 15.6549 19.2471 15.7069C19.1618 15.7612 19.1039 15.7882 19.0731 15.7882C19.0646 15.7882 19.0567 15.7861 19.0496 15.7821C19.0427 15.7781 19.0364 15.7722 19.031 15.7645L19.031 15.7644C19.0258 15.7568 19.0219 15.7482 19.0194 15.7386C19.0168 15.7292 19.0155 15.7188 19.0155 15.7074C19.0155 15.7021 19.0163 15.6961 19.0177 15.689C19.0191 15.6823 19.0212 15.6748 19.0238 15.6665C19.0262 15.6585 19.0294 15.6494 19.0332 15.6394C19.0371 15.6293 19.0413 15.6191 19.0458 15.6086L19.0459 15.6085L19.2694 15.1112V15.1111L19.2739 15.1015C19.28 15.0878 19.2878 15.0708 19.2983 15.0491C19.3099 15.0244 19.3188 15.0049 19.3245 14.9902C19.33 14.9763 19.3327 14.9674 19.3327 14.9634C19.3322 14.9554 19.3239 14.9483 19.3079 14.9423C19.2898 14.9355 19.2623 14.9306 19.2259 14.9278C19.207 14.9265 19.19 14.9251 19.1753 14.9238C19.1626 14.9227 19.1509 14.9215 19.1404 14.9203C19.1144 14.9717 19.086 15.0209 19.0551 15.0677C19.0235 15.1156 18.9894 15.1611 18.9527 15.2039C18.9218 15.2404 18.8878 15.2762 18.8519 15.3103C18.8158 15.3446 18.7776 15.3774 18.7383 15.4077C18.6412 15.485 18.5572 15.5488 18.4865 15.5992C18.4147 15.6503 18.3565 15.6875 18.3122 15.7108C18.268 15.7339 18.2253 15.7513 18.1843 15.7629C18.1433 15.7745 18.1037 15.7803 18.0659 15.7803C18.0218 15.7803 17.9826 15.7738 17.9483 15.7606C17.914 15.7473 17.8845 15.7275 17.8603 15.7011H17.8603C17.8359 15.6747 17.8177 15.6425 17.8055 15.6049C17.7935 15.5675 17.7875 15.5246 17.7875 15.4763V15.4753C17.6543 15.5777 17.5466 15.6551 17.4648 15.7071C17.3798 15.7612 17.322 15.7884 17.2913 15.7884C17.2744 15.7884 17.2596 15.7803 17.248 15.7642C17.2422 15.7563 17.2379 15.7473 17.2352 15.7373C17.2325 15.7275 17.2312 15.7167 17.2312 15.7049C17.2312 15.6995 17.2319 15.6935 17.2334 15.6866C17.2348 15.68 17.237 15.6725 17.24 15.6641C17.2427 15.6559 17.2463 15.6472 17.2503 15.638C17.2545 15.6286 17.2592 15.6188 17.2642 15.6085V15.6085L17.5243 15.0624V15.0624C17.5319 15.047 17.5377 15.0351 17.5419 15.0262L17.5512 15.0068C17.5528 15.0031 17.5541 15 17.5549 14.9975C17.5556 14.9954 17.5559 14.9939 17.5559 14.9928C17.5559 14.9858 17.5552 14.9809 17.5538 14.9779C17.5535 14.9771 17.5531 14.9766 17.5528 14.9763L17.5526 14.9763C17.5481 14.9763 17.5383 14.981 17.523 14.9905C17.5068 15.0005 17.4852 15.0157 17.4582 15.036C17.4312 15.0561 17.4025 15.0791 17.3721 15.1047C17.3418 15.1301 17.3095 15.1586 17.2751 15.1897L17.275 15.1898C17.233 15.2265 17.1921 15.2634 17.1527 15.3005C17.1132 15.3377 17.075 15.3751 17.038 15.4126C17.0012 15.4501 16.9663 15.4868 16.9335 15.5228C16.9008 15.5586 16.8702 15.5935 16.8419 15.6275L16.8262 15.6464V15.6465L16.8055 15.6718C16.7775 15.7075 16.7516 15.7345 16.728 15.7525C16.7035 15.7712 16.6811 15.7805 16.6609 15.7805C16.6516 15.7805 16.6433 15.7788 16.6359 15.7752C16.6285 15.7717 16.6219 15.7663 16.6164 15.7593L16.6163 15.7592C16.6112 15.7523 16.6072 15.7442 16.6046 15.7349C16.602 15.726 16.6007 15.716 16.6007 15.705C16.6007 15.6914 16.6109 15.6633 16.6311 15.6206C16.6508 15.5789 16.6805 15.5224 16.7201 15.4515C16.7382 15.4188 16.7545 15.3894 16.7689 15.3632L16.7894 15.3255C16.7836 15.3307 16.7777 15.3358 16.7719 15.3407C16.7557 15.3545 16.74 15.3672 16.725 15.3788C16.6631 15.4266 16.5821 15.4842 16.5006 15.5378C16.4269 15.5862 16.3529 15.6313 16.2923 15.6632H16.2922C16.2139 15.7043 16.1344 15.7326 16.0562 15.7511C15.9666 15.7723 15.8785 15.7806 15.7958 15.7806C15.7452 15.7806 15.7 15.7739 15.6598 15.7606C15.6196 15.7473 15.5847 15.7272 15.5552 15.7004C15.5256 15.6735 15.5034 15.6416 15.4885 15.6046C15.4738 15.5677 15.4663 15.5259 15.4663 15.4791C15.4663 15.4334 15.4756 15.3883 15.4941 15.3441C15.5125 15.3001 15.54 15.2569 15.5767 15.2147C15.6132 15.1724 15.6597 15.1301 15.7161 15.0876C15.7706 15.0467 15.8345 15.0056 15.9077 14.9645C15.8912 14.9412 15.8763 14.9171 15.8634 14.8924C15.8494 14.8656 15.8375 14.8381 15.8278 14.8099C15.8182 14.7817 15.811 14.753 15.8062 14.7237C15.8014 14.6945 15.799 14.6647 15.799 14.6346C15.799 14.5928 15.8046 14.5502 15.8155 14.5065C15.8264 14.463 15.8428 14.4184 15.8645 14.3726L15.8645 14.3725C15.8865 14.327 15.9124 14.2835 15.9423 14.2423C15.9723 14.201 16.0063 14.1618 16.0443 14.1247C16.0814 14.0877 16.1212 14.0545 16.1635 14.0253C16.2057 13.9962 16.2505 13.971 16.2977 13.9498C16.3452 13.9284 16.392 13.9123 16.4382 13.9015C16.4844 13.8908 16.5301 13.8854 16.5752 13.8854C16.6123 13.8854 16.646 13.8899 16.6761 13.8989C16.7066 13.908 16.7335 13.9215 16.7568 13.9396C16.7806 13.9577 16.7984 13.9787 16.8101 14.0024C16.822 14.0262 16.8279 14.0527 16.8279 14.0819C16.8279 14.1136 16.8029 14.167 16.7532 14.2418C16.7042 14.3158 16.6305 14.4115 16.5326 14.5287C16.4904 14.579 16.4595 14.6161 16.4357 14.6446V14.6446L16.4208 14.6625L16.4158 14.6684L16.4105 14.6627L16.3417 14.5887L16.3376 14.5843L16.3413 14.5797C16.3569 14.5605 16.3728 14.5407 16.3913 14.5181C16.4134 14.4908 16.439 14.4592 16.4634 14.4292V14.4291C16.5432 14.3313 16.6032 14.2521 16.6432 14.192C16.6826 14.1328 16.7023 14.0927 16.7023 14.0716C16.7023 14.0614 16.6992 14.0522 16.6933 14.044C16.6871 14.0355 16.6776 14.0279 16.6651 14.0211C16.652 14.0143 16.6367 14.0092 16.6194 14.0058C16.6018 14.0024 16.5818 14.0006 16.5597 14.0006C16.5326 14.0006 16.5035 14.0049 16.4726 14.0133C16.4413 14.0217 16.4081 14.0345 16.3727 14.0513V14.0513C16.3377 14.0681 16.303 14.0882 16.2689 14.1116C16.2348 14.1348 16.2012 14.1614 16.1681 14.191L16.168 14.1911C16.1285 14.2258 16.0934 14.2617 16.0629 14.299C16.0325 14.3361 16.0067 14.3746 15.9854 14.4142C15.9642 14.4535 15.9483 14.4924 15.9378 14.5307C15.9272 14.5692 15.922 14.6073 15.922 14.6447C15.922 14.6713 15.9247 14.6982 15.9302 14.7254C15.9357 14.7528 15.9439 14.7804 15.9547 14.8083V14.8083C15.9658 14.8368 15.9804 14.8676 15.9984 14.9007C16.0161 14.9334 16.0375 14.9685 16.0624 15.0058L16.0665 15.012L16.0599 15.0157C15.9789 15.06 15.9092 15.1022 15.851 15.1423C15.7931 15.1823 15.7467 15.2201 15.712 15.2558C15.6775 15.2912 15.6516 15.3267 15.6344 15.3623C15.6174 15.3976 15.6089 15.4332 15.6089 15.4689C15.6089 15.4982 15.6135 15.5244 15.6227 15.5474C15.6318 15.5703 15.6456 15.5901 15.6638 15.6069C15.6822 15.6238 15.7042 15.6365 15.7296 15.645C15.7553 15.6535 15.7846 15.6577 15.8175 15.6577C15.8798 15.6577 15.9482 15.6548 16.0182 15.6425C16.0881 15.6302 16.1597 15.6086 16.2286 15.5712C16.3011 15.5318 16.3777 15.4869 16.4544 15.4378C16.5247 15.3929 16.5953 15.3443 16.6633 15.2931L16.6634 15.2931C16.6976 15.2682 16.7218 15.2496 16.744 15.2308C16.7661 15.2119 16.7862 15.193 16.8122 15.1673V15.1672C16.8379 15.1418 16.8588 15.1197 16.8746 15.1009C16.8902 15.0824 16.9009 15.0674 16.9067 15.0557L17.0238 14.817L17.0257 14.8131H17.1553L17.1506 14.823L16.849 15.4568C16.9638 15.3438 17.0657 15.2461 17.1545 15.1636C17.251 15.074 17.3324 15.0024 17.3982 14.9489C17.4639 14.8953 17.5199 14.855 17.5659 14.8281C17.6129 14.8007 17.6499 14.787 17.6771 14.787C17.6847 14.787 17.6917 14.7888 17.6977 14.7922C17.7038 14.7955 17.7089 14.8005 17.7131 14.807L17.7133 14.8074C17.717 14.8138 17.7198 14.8216 17.7217 14.8306C17.7235 14.8393 17.7244 14.8493 17.7244 14.8604C17.7244 14.8662 17.7238 14.8725 17.7226 14.8792C17.7215 14.8857 17.7198 14.8927 17.7174 14.9C17.7154 14.907 17.7121 14.9162 17.7078 14.9274C17.7033 14.9386 17.6979 14.9518 17.6915 14.9667L17.6914 14.9669L17.4169 15.561L17.4114 15.5741C17.4083 15.5811 17.4059 15.5866 17.4047 15.5901L17.4038 15.593V15.593C17.4027 15.5969 17.4019 15.5996 17.4019 15.6009C17.4019 15.6036 17.4023 15.6062 17.4028 15.6084C17.4034 15.6106 17.4043 15.6125 17.4052 15.6139C17.4061 15.6153 17.4073 15.6164 17.4085 15.6173L17.4086 15.6173C17.4094 15.618 17.4104 15.6185 17.4113 15.6187C17.4179 15.6182 17.4322 15.6113 17.4543 15.5979C17.4779 15.5836 17.5101 15.5618 17.5511 15.5324C17.5852 15.5081 17.6234 15.4798 17.6654 15.4479C17.7078 15.4156 17.7554 15.3787 17.8073 15.3378C17.8115 15.3236 17.8164 15.3091 17.8218 15.2948C17.8275 15.2798 17.8339 15.2648 17.8408 15.2503V15.2502C17.8585 15.2132 17.8803 15.1767 17.9065 15.1409C17.9325 15.1052 17.9628 15.0701 17.9974 15.0358C18.0354 14.9982 18.0735 14.9647 18.112 14.9354C18.1508 14.9057 18.19 14.8801 18.2293 14.8587C18.2685 14.8375 18.3059 14.8216 18.3414 14.8111C18.3773 14.8003 18.4115 14.795 18.4437 14.795C18.4712 14.795 18.4958 14.7983 18.5174 14.8049V14.8049C18.5393 14.8116 18.5582 14.8216 18.5738 14.8348V14.8348C18.5894 14.8484 18.6013 14.8646 18.6092 14.8835C18.617 14.9023 18.621 14.9236 18.621 14.9472C18.621 15.0082 18.6054 15.0659 18.5742 15.1202C18.5431 15.1742 18.4966 15.225 18.4346 15.2724C18.3726 15.3198 18.3042 15.3554 18.2294 15.3792C18.1549 15.4029 18.0739 15.4147 17.9868 15.4147C17.9677 15.4147 17.9535 15.4147 17.9439 15.4143C17.939 15.414 17.9346 15.4137 17.9303 15.4134L17.9302 15.4133L17.9227 15.4126C17.9213 15.4176 17.9201 15.4225 17.919 15.4273C17.9176 15.4334 17.9164 15.4393 17.9155 15.4451C17.9147 15.4509 17.914 15.4569 17.9136 15.463V15.463C17.9132 15.4692 17.9129 15.4755 17.9129 15.4817C17.9129 15.5131 17.9165 15.5407 17.9237 15.5642C17.9308 15.5874 17.9414 15.6068 17.9555 15.6224L17.9556 15.6224C17.9694 15.638 17.9867 15.6496 18.0073 15.6574C18.0282 15.6653 18.0526 15.6693 18.0804 15.6693C18.1123 15.6693 18.1462 15.6638 18.1824 15.6529V15.6528C18.2187 15.6419 18.2573 15.6254 18.298 15.6033H18.2981C18.3368 15.5824 18.3914 15.546 18.46 15.4962C18.529 15.4462 18.6118 15.3826 18.7068 15.3074L18.707 15.3072C18.7405 15.2826 18.7728 15.2553 18.8037 15.2254C18.8346 15.1956 18.8643 15.1631 18.8927 15.128V15.128C18.9236 15.0904 18.9519 15.0508 18.9779 15.0095C19.0026 14.97 19.0253 14.9288 19.0458 14.8859C19.0389 14.8813 19.0327 14.8764 19.0275 14.8713C19.021 14.8649 19.0156 14.8581 19.0117 14.8509C19.0077 14.8437 19.0047 14.8355 19.0028 14.8265C19.0007 14.8174 18.9998 14.8074 18.9998 14.7966C18.9998 14.7789 19.002 14.7629 19.0065 14.7485C19.011 14.7341 19.0179 14.7211 19.0271 14.7099C19.0364 14.6985 19.047 14.6899 19.0591 14.6841C19.0711 14.6783 19.0845 14.6755 19.099 14.6755C19.111 14.6755 19.1221 14.6777 19.1321 14.6819C19.1423 14.6862 19.1514 14.6926 19.1593 14.701L19.1594 14.701C19.1676 14.7095 19.1737 14.719 19.1777 14.7296C19.1816 14.7401 19.1836 14.7515 19.1836 14.7638C19.1836 14.7757 19.1826 14.7862 19.1808 14.7965V14.7965C19.1799 14.8011 19.1789 14.806 19.1776 14.8114L19.1759 14.818C19.1838 14.818 19.1915 14.8178 19.199 14.8177C19.2097 14.8175 19.2207 14.8171 19.232 14.8167L19.2404 14.8158H19.2404C19.2431 14.8155 19.2449 14.8154 19.2458 14.8154C19.2826 14.8154 19.3142 14.8179 19.3407 14.8228C19.3674 14.8279 19.3889 14.8355 19.4052 14.8457V14.8456C19.422 14.8561 19.4346 14.8698 19.443 14.8868C19.4514 14.9037 19.4555 14.9238 19.4555 14.9467C19.4555 14.9552 19.4545 14.9645 19.4525 14.9746C19.4504 14.9847 19.4475 14.9956 19.4437 15.0073L19.4436 15.0074C19.4395 15.0193 19.4328 15.0366 19.4236 15.0589C19.4145 15.0806 19.4029 15.1074 19.3888 15.1391V15.1391L19.1985 15.5605L19.1941 15.5733L19.1899 15.586C19.1886 15.5905 19.1875 15.594 19.187 15.5963C19.1865 15.5985 19.1862 15.6001 19.1862 15.6008C19.1862 15.6033 19.1865 15.6056 19.187 15.6077C19.1876 15.6098 19.1884 15.6117 19.1896 15.6135C19.1907 15.6153 19.1918 15.6165 19.193 15.6175C19.1937 15.6181 19.1946 15.6185 19.1955 15.6187C19.2088 15.6178 19.2542 15.5895 19.3315 15.5337C19.3651 15.5095 19.4032 15.4811 19.4462 15.4484C19.4884 15.4162 19.5353 15.3798 19.5872 15.339C19.5906 15.3272 19.5947 15.3148 19.5993 15.3025C19.6036 15.2907 19.6086 15.2789 19.6141 15.2675C19.6288 15.236 19.6476 15.205 19.6702 15.1744C19.6931 15.1436 19.7198 15.1133 19.7504 15.0835C19.7955 15.0396 19.8435 15.0001 19.8944 14.9651C19.9453 14.9302 19.9992 14.8996 20.0562 14.8736C20.1132 14.8475 20.1681 14.8279 20.2207 14.8147C20.2736 14.8016 20.3245 14.7949 20.3731 14.7949C20.4016 14.7949 20.4286 14.7973 20.4539 14.802C20.4793 14.8067 20.5031 14.8137 20.5253 14.8229C20.5473 14.8322 20.5681 14.8441 20.5876 14.8583C20.607 14.8726 20.6252 14.8895 20.6422 14.909L20.6458 14.9131L20.6427 14.9175L20.5869 14.9967L20.5819 15.0037L20.5761 14.9974C20.5602 14.98 20.5442 14.965 20.5282 14.9523C20.5123 14.9397 20.4961 14.9294 20.4797 14.9215C20.4636 14.9138 20.4463 14.9079 20.4277 14.9041C20.4091 14.9002 20.3892 14.8983 20.3678 14.8983C20.3354 14.8983 20.2996 14.9031 20.2607 14.9128C20.2218 14.9225 20.1797 14.9371 20.1345 14.9566C20.089 14.9762 20.0455 14.9988 20.004 15.0242C19.9623 15.0497 19.9226 15.0782 19.8847 15.1097C19.8512 15.1371 19.8218 15.1655 19.7965 15.1949C19.7715 15.2239 19.7508 15.2538 19.7341 15.2844C19.7176 15.3152 19.7051 15.3469 19.6969 15.3795C19.6885 15.4119 19.6844 15.4451 19.6844 15.4791C19.6844 15.5098 19.6872 15.5368 19.6928 15.5599C19.6983 15.5826 19.7067 15.6018 19.7177 15.6172V15.6173C19.7283 15.6325 19.7415 15.6439 19.757 15.6515C19.7726 15.6591 19.7907 15.663 19.8114 15.663C19.8579 15.663 19.9282 15.6158 20.0221 15.5216C20.0699 15.4737 20.125 15.4121 20.1875 15.3369C20.2492 15.2624 20.3179 15.1748 20.3933 15.0741L20.3956 15.071L20.3993 15.0713L20.5084 15.0793L20.5183 15.08L20.5141 15.0891L20.2269 15.7144C20.2599 15.6863 20.2936 15.658 20.3277 15.6297C20.3699 15.5946 20.4139 15.5587 20.4597 15.522L20.5175 15.4748C20.5846 15.42 20.6559 15.3618 20.7316 15.3037V15.3037C20.7615 15.2813 20.7898 15.2586 20.8164 15.2358C20.8429 15.2131 20.8679 15.1901 20.8913 15.1672C20.917 15.1417 20.9378 15.1196 20.9537 15.1008C20.9694 15.0825 20.9802 15.0674 20.9862 15.0556L21.1028 14.817L21.1048 14.8131H21.2344L21.2297 14.823L20.8814 15.5613C20.8776 15.5693 20.8743 15.5772 20.8715 15.5841L20.8705 15.5865C20.8692 15.59 20.8682 15.593 20.8675 15.5956C20.8669 15.598 20.8667 15.5998 20.8667 15.6009C20.8667 15.6064 20.868 15.6109 20.8707 15.6145C20.8719 15.6163 20.8731 15.6176 20.8741 15.6183L20.8742 15.6184C20.8746 15.6187 20.875 15.6188 20.8753 15.6188C20.8814 15.6188 20.896 15.6118 20.9192 15.5977C20.9429 15.5833 20.9751 15.5616 21.0154 15.5324V15.5324C21.0551 15.504 21.0999 15.4707 21.1498 15.4326C21.1994 15.3946 21.2548 15.3514 21.3158 15.3029C21.3173 15.2988 21.3191 15.2951 21.3208 15.2913L21.3241 15.2837C21.3368 15.2537 21.353 15.224 21.3722 15.1947C21.3915 15.1653 21.4141 15.1362 21.4397 15.1074L21.4398 15.1073C21.4833 15.0599 21.5309 15.0172 21.5825 14.9794C21.6342 14.9414 21.6901 14.9082 21.7498 14.8799C21.8095 14.8516 21.8683 14.8304 21.9262 14.8163C21.9844 14.8022 22.0415 14.7951 22.0975 14.7951C22.1207 14.7951 22.1426 14.7962 22.1632 14.7985C22.1839 14.8008 22.2034 14.8043 22.2216 14.8091C22.2397 14.8135 22.2574 14.8196 22.2749 14.8271C22.2925 14.8347 22.31 14.8439 22.3273 14.8546L22.3307 14.8567L22.3306 14.8608L22.3252 14.9617L22.3246 14.9739L22.3145 14.9672C22.2966 14.9552 22.2788 14.9447 22.261 14.9361C22.2433 14.9273 22.2257 14.9203 22.2081 14.9149V14.9149C22.1904 14.9095 22.172 14.9054 22.1531 14.9026C22.1343 14.8998 22.1148 14.8984 22.0948 14.8984C22.0467 14.8984 21.9975 14.9046 21.9472 14.9171C21.8967 14.9295 21.845 14.9482 21.792 14.973C21.7392 14.9978 21.6912 15.0261 21.6482 15.0577C21.6053 15.0892 21.5672 15.1241 21.5343 15.1622C21.5132 15.1865 21.4945 15.2115 21.4784 15.2371C21.4623 15.2625 21.4486 15.2886 21.4374 15.3153V15.3153C21.4261 15.342 21.4176 15.3682 21.4119 15.3943C21.4061 15.4202 21.4034 15.4461 21.4034 15.4716C21.4034 15.5011 21.4065 15.5275 21.4127 15.5507V15.5508C21.4188 15.5738 21.428 15.5938 21.4401 15.6106L21.4402 15.6106C21.4525 15.6273 21.4667 15.6398 21.4827 15.6481C21.4988 15.6563 21.5169 15.6605 21.5371 15.6605C21.5621 15.6605 21.5909 15.6498 21.6231 15.6288C21.6561 15.6073 21.6928 15.5748 21.733 15.5316C21.7733 15.4881 21.8261 15.4225 21.8914 15.3348C21.9562 15.2476 22.0335 15.1387 22.1227 15.008L22.1251 15.0047L22.1292 15.0051L22.2334 15.0152L22.2431 15.0162L22.2389 15.025L21.9879 15.5627C21.9854 15.5685 21.9833 15.5748 21.9812 15.5805V15.5806L21.9793 15.5863C21.9781 15.59 21.9771 15.5933 21.9765 15.5959C21.9759 15.5982 21.9757 15.5999 21.9757 15.601C21.9757 15.6057 21.977 15.6101 21.9796 15.6137L21.9797 15.6138L21.98 15.6143C21.981 15.616 21.9822 15.6173 21.9832 15.6181V15.6181C21.984 15.6186 21.9848 15.6189 21.9857 15.6189C21.994 15.6189 22.0311 15.6139 22.0742 15.5915C22.0989 15.5787 22.1255 15.5601 22.1493 15.5335C22.166 15.5149 22.1814 15.498 22.1957 15.4827C22.2099 15.4676 22.2232 15.4536 22.2356 15.4409C22.2372 15.4376 22.2391 15.4345 22.2412 15.4316C22.2435 15.4284 22.2461 15.4254 22.249 15.4225C22.4519 15.223 22.6187 15.1756 22.7623 15.2003C22.9057 15.2249 23.0252 15.3213 23.1347 15.4097C23.2317 15.488 23.319 15.5584 23.3909 15.538C23.4823 15.5121 23.5858 15.3672 23.6851 15.2282C23.7186 15.1813 23.7517 15.135 23.7849 15.0925C23.8182 15.0501 23.8513 15.0116 23.8847 14.9808C23.8985 14.968 23.9162 14.9621 23.9337 14.9628C23.9511 14.9636 23.9683 14.9709 23.9811 14.9848C23.9938 14.9986 23.9997 15.0163 23.9991 15.0338C23.9983 15.0513 23.9909 15.0684 23.9771 15.0812C23.949 15.1072 23.9195 15.1417 23.8892 15.1806C23.8586 15.22 23.8276 15.2634 23.7962 15.3073C23.7399 15.3861 23.6824 15.4666 23.6219 15.5323C23.5609 15.5986 23.4968 15.6499 23.4278 15.6694C23.2884 15.709 23.1752 15.6176 23.0494 15.516C22.9606 15.4444 22.8638 15.3663 22.7499 15.3458C22.6364 15.3254 22.5048 15.3623 22.3445 15.5198C22.3414 15.5229 22.3378 15.5257 22.3343 15.5281C22.3309 15.5303 22.3274 15.5323 22.3239 15.5338L22.3208 15.5368C22.1911 15.666 22.0906 15.7315 22.016 15.7633C21.9403 15.7957 21.8904 15.7937 21.8633 15.7886C21.8566 15.7873 21.85 15.7856 21.8435 15.7826C21.8369 15.7796 21.8305 15.7752 21.8245 15.7687L21.8243 15.7686C21.8186 15.7622 21.8143 15.7548 21.8114 15.7467V15.7467C21.8086 15.7388 21.8072 15.73 21.8072 15.7207C21.8072 15.7158 21.808 15.7096 21.8097 15.7022V15.7021C21.8113 15.695 21.8137 15.6866 21.8168 15.677C21.8196 15.6678 21.8233 15.6571 21.8278 15.6454V15.6454C21.8323 15.6337 21.8373 15.6215 21.8428 15.609V15.6089L21.8991 15.4824C21.871 15.5218 21.8442 15.557 21.8185 15.5879C21.7805 15.634 21.7452 15.6708 21.7124 15.6981C21.6797 15.7255 21.647 15.7462 21.6145 15.7599C21.5818 15.7738 21.5489 15.7807 21.5164 15.7807C21.4824 15.7807 21.4513 15.7735 21.4233 15.7592C21.3956 15.745 21.371 15.7236 21.3499 15.6952H21.3498C21.3284 15.6667 21.3121 15.6337 21.3013 15.5964C21.2908 15.5597 21.2856 15.5188 21.2859 15.474V15.474C21.2859 15.4669 21.2861 15.4599 21.2864 15.4531L21.2856 15.4456L21.2869 15.4483ZM17.9272 15.3087C17.9413 15.3105 17.9551 15.3118 17.9688 15.3127C17.9826 15.3136 17.9972 15.314 18.0119 15.314C18.1321 15.314 18.243 15.2742 18.3441 15.194C18.4457 15.1138 18.4962 15.0354 18.4962 14.9584C18.4962 14.9376 18.4891 14.9212 18.475 14.9092C18.4603 14.8973 18.4412 14.8911 18.4169 14.8911C18.3477 14.8911 18.2643 14.9309 18.1671 15.0102C18.0698 15.09 17.99 15.1894 17.9274 15.3086L17.9272 15.3087ZM17.7177 14.9002L17.7177 14.9003L17.7177 14.9002ZM21.2463 14.6441C21.236 14.6441 21.2266 14.6425 21.2184 14.6394H21.2183C21.2099 14.6362 21.2026 14.6315 21.1965 14.6252C21.1903 14.6191 21.1857 14.6117 21.1827 14.6034C21.1796 14.5952 21.1781 14.586 21.1781 14.5761C21.1781 14.5572 21.1811 14.5388 21.1871 14.521C21.1931 14.5032 21.2021 14.486 21.214 14.4693C21.2261 14.4524 21.239 14.4396 21.2527 14.4309C21.2666 14.4221 21.2814 14.4176 21.2968 14.4176C21.3067 14.4176 21.3158 14.4193 21.324 14.4225C21.3323 14.4258 21.3397 14.4308 21.3462 14.4375C21.3523 14.4439 21.3571 14.4514 21.3602 14.4599C21.3633 14.4683 21.365 14.4776 21.365 14.4879C21.365 14.5089 21.3622 14.5285 21.3566 14.5467C21.3511 14.5649 21.3428 14.5817 21.3317 14.5969C21.3205 14.6126 21.3077 14.6244 21.2935 14.6322C21.2784 14.6406 21.2624 14.6446 21.2457 14.6446L21.2463 14.6441Z" fill="#FF6600"/>
</svg>
