<svg width="12" height="12" viewBox="0 0 12 12" fill="none" xmlns="http://www.w3.org/2000/svg">
<path d="M0 0H12V12H0V0Z" fill="#8A05BE"/>
<path d="M8.85834 6.94967C8.85834 7.13974 8.63156 7.37339 8.44712 7.37339H8.27918C8.27936 6.21016 8.27936 4.90608 8.27918 4.6746C8.27911 4.66775 8.28039 4.66095 8.28295 4.65459C8.28551 4.64823 8.2893 4.64244 8.2941 4.63755C8.2989 4.63266 8.30463 4.62876 8.31094 4.62609C8.31725 4.62341 8.32402 4.622 8.33088 4.62195H8.80641C8.83497 4.62195 8.85837 4.64592 8.85837 4.67501V6.94967H8.85834ZM8.08343 7.78157C8.08343 7.90189 8.02456 8.10344 7.63021 8.10344C6.86598 8.10344 6.39684 7.50469 6.39684 7.07528C6.39684 7.07528 6.39599 5.68679 6.39599 4.67504C6.39591 4.66818 6.39719 4.66136 6.39975 4.655C6.40232 4.64863 6.40612 4.64283 6.41093 4.63794C6.41575 4.63304 6.42148 4.62915 6.42781 4.62648C6.43413 4.62381 6.44092 4.62242 6.44779 4.62239H6.92389C6.95248 4.62239 6.97595 4.6462 6.97595 4.67548V6.90644C6.97595 7.27505 7.26769 7.57403 7.62732 7.57403H8.08369L8.08343 7.78157ZM8.8425 4.42187H8.29471C8.17824 4.42187 8.08338 4.51915 8.08338 4.63849V7.37362H7.62698C7.37518 7.37362 7.1711 7.16441 7.1711 6.90639V4.63849C7.1711 4.51887 7.07638 4.42177 6.95967 4.42177H6.41165C6.29494 4.42177 6.20024 4.51887 6.20006 4.63849C6.19978 5.62738 6.20091 7.07533 6.20091 7.07533C6.20099 7.83641 7.03332 8.30375 7.63005 8.30375C8.03032 8.30375 8.27892 8.10323 8.27892 7.7802V7.57398H8.44704C8.74192 7.57398 9.05383 7.25315 9.05383 6.94967V4.63849C9.05411 4.51887 8.95941 4.42177 8.84253 4.42177V4.42187H8.8425ZM5.60495 7.32499C5.60502 7.33185 5.60374 7.33865 5.60117 7.345C5.5986 7.35136 5.5948 7.35714 5.58999 7.36203C5.58518 7.36691 5.57945 7.37079 5.57313 7.37346C5.56682 7.37612 5.56003 7.37751 5.55318 7.37754H5.07707C5.0481 7.37754 5.02489 7.35352 5.02502 7.32458V5.09359C5.02502 4.72501 4.7332 4.42602 4.37365 4.42602H3.91725V4.21844C3.91725 4.09838 3.97612 3.89657 4.37047 3.89657C5.13473 3.89657 5.604 4.49529 5.604 4.92473C5.604 4.92473 5.60485 6.31995 5.60485 7.32497H5.60495V7.32499ZM3.19404 7.378C3.16507 7.37715 3.1419 7.35381 3.14224 7.32484V5.05059C3.14224 4.86049 3.36904 4.62654 3.55341 4.62654H3.7215C3.72125 6.29232 3.72125 7.1447 3.7215 7.32473C3.72164 7.33864 3.71625 7.35204 3.70653 7.36199C3.6968 7.37194 3.68354 7.37763 3.66963 7.37782H3.19411L3.19404 7.378ZM5.79941 4.92475C5.79951 4.16359 4.96715 3.69626 4.3705 3.69626C3.97013 3.69626 3.7215 3.89675 3.7215 4.2198V4.42602H3.55349C3.2585 4.42602 2.94659 4.74686 2.94659 5.05036V7.36152C2.94659 7.48114 3.04129 7.57824 3.15795 7.57824H3.70564C3.70904 7.57824 3.71196 7.57731 3.71536 7.57731C3.8273 7.57192 3.91697 7.47766 3.91697 7.36152V4.62639H4.37344C4.62514 4.62639 4.82932 4.8356 4.82932 5.09362V7.36155C4.82932 7.48116 4.92405 7.57826 5.04068 7.57826H5.58881C5.70551 7.57826 5.80016 7.48142 5.80016 7.36155C5.80057 6.35421 5.79949 4.9247 5.79949 4.9247L5.79941 4.92475Z" fill="white"/>
</svg>
