<svg width="24" height="24" viewBox="0 0 24 24" fill="none" xmlns="http://www.w3.org/2000/svg">
<g clip-path="url(#clip0)">
<path d="M0 0H24V24H0V0Z" fill="black"/>
<path d="M6.59398 10.434V12.252C6.59398 12.858 6.32398 13.11 5.69399 13.11C5.06399 13.11 4.79399 12.858 4.79399 12.252V10.356H4.194C4.14 10.356 4.116 10.38 4.116 10.434V12.276C4.116 13.29 4.76399 13.644 5.69999 13.644C6.63598 13.644 7.28398 13.29 7.28398 12.276V10.35H6.67798C6.62398 10.356 6.59398 10.38 6.59398 10.434Z" fill="white"/>
<path d="M15.3841 10.878C15.4321 10.878 15.4561 10.86 15.4741 10.824L15.6481 10.392C15.6601 10.368 15.6481 10.35 15.6241 10.35H13.182C12.954 10.35 12.87 10.422 12.87 10.578V13.3979C12.87 13.5299 12.936 13.5899 13.11 13.5899H15.3841C15.4321 13.5899 15.4561 13.5719 15.4741 13.5359L15.6481 13.1039C15.6601 13.0799 15.6481 13.0619 15.6241 13.0619H13.542V12.4859C13.542 12.288 13.65 12.198 13.944 12.198H14.8501C14.8981 12.198 14.9221 12.18 14.9401 12.144L15.1081 11.724C15.1201 11.7 15.1081 11.682 15.0841 11.682H13.542V10.872H15.3841V10.878Z" fill="white"/>
<path d="M11.0819 11.886C11.3459 11.748 11.4539 11.484 11.4539 11.178C11.4539 10.464 10.8719 10.356 10.2659 10.356H8.88594C8.65794 10.356 8.57394 10.428 8.57394 10.584V13.404C8.57394 13.536 8.63994 13.596 8.81394 13.596H10.5119C11.1539 13.596 11.6099 13.35 11.6099 12.702C11.6159 12.306 11.4479 11.982 11.0819 11.886ZM9.25193 10.872H10.3199C10.6799 10.872 10.7759 11.004 10.7759 11.286C10.7759 11.568 10.6739 11.7 10.3199 11.7H9.25193V10.872ZM10.4459 13.068H9.25193V12.474C9.25193 12.276 9.35993 12.186 9.65393 12.186H10.4459C10.8239 12.186 10.9319 12.33 10.9319 12.63C10.9379 12.93 10.8299 13.068 10.4459 13.068Z" fill="white"/>
<path d="M19.8781 13.5359L19.1521 12.288C19.5121 12.198 19.8061 11.958 19.8061 11.352C19.8061 10.566 19.3201 10.356 18.5161 10.356H17.13C16.902 10.356 16.818 10.428 16.818 10.584V13.5179C16.818 13.5719 16.842 13.5959 16.896 13.5959H17.49V12.654C17.49 12.456 17.598 12.366 17.892 12.366H18.4861L19.1401 13.5479C19.1581 13.5839 19.1821 13.6019 19.2301 13.6019H19.8481C19.8901 13.5899 19.8901 13.5539 19.8781 13.5359ZM18.6121 11.856H17.484V10.878H18.6121C19.0321 10.878 19.1281 11.04 19.1281 11.37C19.1281 11.694 19.0321 11.856 18.6121 11.856Z" fill="white"/>
</g>
<defs>
<clipPath id="clip0">
<rect width="24" height="24" fill="white"/>
</clipPath>
</defs>
</svg>
