<svg width="24" height="24" viewBox="0 0 24 24" fill="none" xmlns="http://www.w3.org/2000/svg">
<path d="M23.9927 15.4001L21.3692 11.8498L23.7608 8.6243H22.8676L20.9225 11.256L18.9778 8.6243H18.0848L20.472 11.8498L17.8571 15.4001H18.7546L20.9229 12.4607L23.0998 15.4001H23.9927ZM6.13978 15.4001L3.52501 11.8498L5.91227 8.6243H5.01926L3.07416 11.2558L1.12922 8.6243H0.231866L2.62347 11.8498L0 15.4001H0.897354L3.07432 12.4607L5.24243 15.4001H6.13978Z" fill="black"/>
<path d="M9.27852 14.6952H7.27772V12.23H9.27852C10.0427 12.23 10.9444 12.4352 10.9444 13.4093C10.9444 14.5244 9.90101 14.6952 9.27852 14.6952ZM7.27772 9.33348H9.27852C9.81954 9.33348 10.7254 9.47034 10.7254 10.41C10.7254 11.1235 10.1973 11.5465 9.27852 11.5465H7.27772V9.33348ZM11.1204 12.1062C10.9868 11.99 10.8362 11.8949 10.6739 11.8243C11.1676 11.555 11.4896 11.0552 11.4896 10.4656C11.4896 10.0341 11.3308 8.62001 9.27852 8.62001H6.51772V11.5425H5.59896C5.47433 11.6963 5.20382 12.0679 5.10077 12.2217H6.52223V15.396H9.27868C10.7815 15.396 11.7131 14.6398 11.7131 13.418C11.7131 12.8883 11.507 12.4353 11.1206 12.1064L11.1204 12.1062ZM15.3067 14.8321C13.8469 14.8321 12.8249 13.6699 12.8249 12.0078C12.8249 10.3461 13.8469 9.18405 15.3067 9.18405C16.7623 9.18405 17.7754 10.346 17.7754 12.008C17.7754 13.6742 16.7621 14.8319 15.3067 14.8319V14.8321ZM15.3067 8.47058C13.3874 8.47058 12.052 9.92731 12.052 12.0122C12.052 14.097 13.3874 15.5539 15.3067 15.5539C17.2131 15.5539 18.5483 14.097 18.5483 12.0122C18.5483 9.92313 17.213 8.47058 15.3067 8.47058Z" fill="black"/>
</svg>
